<svg width="40" height="40" viewBox="0 0 40 40" fill="none" xmlns="http://www.w3.org/2000/svg">
<rect width="40" height="40" rx="20" fill="#FF0000" fill-opacity="0.1"/>
<path d="M27.5 13.5L27.0982 20.0062M12.5 13.5L13.1046 23.5248C13.2595 26.0922 13.3369 27.3759 13.9787 28.299C14.296 28.7554 14.7048 29.1407 15.1791 29.4302C15.8503 29.84 16.6811 29.9631 18 30" stroke="#FF0000" stroke-width="1.5" stroke-linecap="round"/>
<path d="M28 23L21 29.9995M28 30L21 23.0005" stroke="#FF0000" stroke-width="1.5" stroke-linecap="round" stroke-linejoin="round"/>
<path d="M11 13.5H29M24.0557 13.5L23.3731 12.0917C22.9196 11.1563 22.6928 10.6885 22.3017 10.3968C22.215 10.3321 22.1231 10.2745 22.027 10.2247C21.5939 10 21.0741 10 20.0345 10C18.9688 10 18.436 10 17.9957 10.2341C17.8981 10.286 17.805 10.3459 17.7173 10.4132C17.3216 10.7167 17.1006 11.2016 16.6586 12.1713L16.0529 13.5" stroke="#FF0000" stroke-width="1.5" stroke-linecap="round"/>
</svg>
